<?xml version="1.0" encoding="UTF-8"?>
<!-- Created with Inkscape (http://www.inkscape.org/) -->
<svg width="15" height="15.001" version="1.1" viewBox="0 0 15 15.001" xmlns="http://www.w3.org/2000/svg" xmlns:cc="http://creativecommons.org/ns#" xmlns:dc="http://purl.org/dc/elements/1.1/" xmlns:rdf="http://www.w3.org/1999/02/22-rdf-syntax-ns#">
 <metadata>
  <rdf:RDF>
   <cc:Work rdf:about="">
    <dc:format>image/svg+xml</dc:format>
    <dc:type rdf:resource="http://purl.org/dc/dcmitype/StillImage"/>
    <dc:title/>
   </cc:Work>
  </rdf:RDF>
 </metadata>
 <g transform="translate(-121 -668.36)">
  <path transform="translate(0 667.36)" d="m125.56 1c-0.4588-0.0111-0.91153 0.10788-1.3086 0.33789-0.7731 0.44631-1.2495 1.2695-1.25 2.1621v1.5195c1-0.16276 1.6434-0.010583 2.5 0.37305 0.85663 0.38251 1.4996 1.4124 1.5 2.4043v3.2031h1v-7.5c-4.7e-4 -0.89258-0.4769-1.7158-1.25-2.1621-0.36265-0.21021-0.77236-0.32743-1.1914-0.33789zm8 0c-0.4588-0.0111-0.91153 0.10788-1.3086 0.33789-0.7731 0.44631-1.2495 1.2695-1.25 2.1621v1.5195c1-0.16276 1.6434-0.010583 2.5 0.37305 0.85663 0.38251 1.4996 1.4124 1.5 2.4043v3.2031h1v-7.5c-4.7e-4 -0.89258-0.4769-1.7158-1.25-2.1621-0.36265-0.21021-0.77236-0.32743-1.1914-0.33789zm-9.998 5a2.5 2.4999 0 0 0-1.3106 0.33594 2.5 2.4999 0 0 0-1.25 2.1641v7.5h5v-7.5a2.5 2.4999 0 0 0-1.25-2.1641 2.5 2.4999 0 0 0-1.1894-0.33594zm8 0a2.5 2.4999 0 0 0-1.3106 0.33594 2.5 2.4999 0 0 0-1.25 2.1641v7.5h5v-7.5a2.5 2.4999 0 0 0-1.25-2.1641 2.5 2.4999 0 0 0-1.1894-0.33594z"/>
 </g>
 <style type="text/css">.st0{fill:#010101;}
	.st1{fill:#010101;stroke:#000000;stroke-width:4;stroke-linecap:round;stroke-linejoin:round;stroke-miterlimit:10;}</style>
</svg>
