<?xml version="1.0" encoding="UTF-8"?>
<!-- Created with Inkscape (http://www.inkscape.org/) -->
<svg width="15" height="13" version="1.1" viewBox="0 0 15 13" xmlns="http://www.w3.org/2000/svg" xmlns:cc="http://creativecommons.org/ns#" xmlns:dc="http://purl.org/dc/elements/1.1/" xmlns:rdf="http://www.w3.org/1999/02/22-rdf-syntax-ns#">
 <metadata>
  <rdf:RDF>
   <cc:Work rdf:about="">
    <dc:format>image/svg+xml</dc:format>
    <dc:type rdf:resource="http://purl.org/dc/dcmitype/StillImage"/>
    <dc:title/>
   </cc:Work>
  </rdf:RDF>
 </metadata>
 <g transform="translate(-31 -729.36)">
  <path d="m31.526 729.36c-0.29138 0-0.52539 0.23401-0.52539 0.52539v11.949c0 0.29138 0.23401 0.52539 0.52539 0.52539h0.94922c0.29138 0 0.52539-0.23401 0.52539-0.52539v-0.45703h11v0.45703c0 0.29138 0.23401 0.52539 0.52539 0.52539h0.94922c0.29138 0 0.52539-0.23401 0.52539-0.52539v-11.949c0-0.29138-0.23401-0.52539-0.52539-0.52539h-0.94922c-0.29138 0-0.52539 0.23401-0.52539 0.52539v0.48438c-0.0174-2e-3 -0.0329-0.01-0.0508-0.01h-10.949v-0.47461c0-0.29138-0.23401-0.52539-0.52539-0.52539zm12.475 2.9902v5.752l-9.7285-5.7422h9.6777c0.0179 0 0.0334-8e-3 0.0508-0.01zm-11 1.582 9.1973 5.4277h-9.1973z"/>
 </g>
 <style type="text/css">.st0{fill:#010101;}
	.st1{fill:#010101;stroke:#000000;stroke-width:4;stroke-linecap:round;stroke-linejoin:round;stroke-miterlimit:10;}</style>
</svg>
