<?xml version="1.0" encoding="UTF-8"?>
<svg width="64" height="64" version="1.1" viewBox="0 0 32 32" xmlns="http://www.w3.org/2000/svg" xmlns:cc="http://creativecommons.org/ns#" xmlns:dc="http://purl.org/dc/elements/1.1/" xmlns:rdf="http://www.w3.org/1999/02/22-rdf-syntax-ns#">
 <g transform="translate(-1 -275)">
  <path d="m1 275v0.35352l15.643 15.646h0.35352v-0.35352l-15.643-15.646zm15.643 16h-0.0098l0.36722 0.33008v0.0234l15.643 15.647h0.35156v-0.35352l-15.641-15.646-0.35352-0.35352v0.35552zm-7.998-16 8.3516 8.3535v-0.70704l-7.6445-7.6465zm7.9883 0 0.36719 0.33008v0.0234l15.643 15.647h0.35156v-0.35352l-15.641-15.646h-0.35352v2e-3zm16.01 16h-0.0098l0.36722 0.33008v-0.32813zm-7.998-16 8.3496 8.3535v-0.70704l-7.6426-7.6465zm7.9883 0 0.36719 0.33008v-0.32813zm-31.633 7.6465v0.70704l15.996 16v-0.70704l-7.6445-7.6465zm16 0v0.70704l7.6445 7.6465 8.3496 8.3535v-0.70704l-7.6426-7.6465zm-16 8v0.70704l15.643 15.646h0.35352v-0.35352l-15.643-15.646zm0 8v0.70704l7.6445 7.6465h0.70703zm16 0v0.70704l7.6445 7.6465h0.70703zm-16 8v0.35352h0.35352zm16 0v0.35352h0.35352z"/>
 </g>
</svg>
