<?xml version="1.0" encoding="UTF-8"?>
<!-- Created with Inkscape (http://www.inkscape.org/) -->
<svg width="15.002" height="14.999" version="1.1" viewBox="0 0 15.002 14.999" xmlns="http://www.w3.org/2000/svg" xmlns:cc="http://creativecommons.org/ns#" xmlns:dc="http://purl.org/dc/elements/1.1/" xmlns:rdf="http://www.w3.org/1999/02/22-rdf-syntax-ns#">
 <metadata>
  <rdf:RDF>
   <cc:Work rdf:about="">
    <dc:format>image/svg+xml</dc:format>
    <dc:type rdf:resource="http://purl.org/dc/dcmitype/StillImage"/>
    <dc:title/>
   </cc:Work>
  </rdf:RDF>
 </metadata>
 <g transform="translate(-121 -728.36)">
  <path transform="translate(0 667.36)" d="m128.68 61.002a7.5026 7.5073 0 0 0-0.56054 0.0098 7.5026 7.5073 0 0 1-0.1875 7.1582 7.5026 7.5073 0 0 1-6.1113 3.7383 7.5026 7.5073 0 0 0 2.9336 3.0938 7.5026 7.5073 0 0 0 4.5547 0.95312 7.5026 7.5073 0 0 1 0.35742-6.7852 7.5026 7.5073 0 0 1 5.6934-3.7012 7.5026 7.5073 0 0 0-3.1035-3.4707 7.5026 7.5073 0 0 0-3.5762-0.99609zm-2.6387 0.41797a7.5026 7.5073 0 0 0-4.0352 3.3262 7.5026 7.5073 0 0 0-0.89649 5.0215h2e-3a5.5019 5.5054 0 0 0 4.9883-2.7441 5.5019 5.5054 0 0 0-0.0586-5.6035zm9.8613 5.8613a5.5019 5.5054 0 0 0-4.6055 2.7441 5.5019 5.5054 0 0 0-0.0273 5.4453 7.5026 7.5073 0 0 0 3.7324-3.2168 7.5026 7.5073 0 0 0 0.90039-4.9727z"/>
 </g>
 <style type="text/css">.st0{fill:#010101;}
	.st1{fill:#010101;stroke:#000000;stroke-width:4;stroke-linecap:round;stroke-linejoin:round;stroke-miterlimit:10;}</style>
</svg>
