<?xml version="1.0" encoding="UTF-8"?>
<!-- Created with Inkscape (http://www.inkscape.org/) -->
<svg width="29.969" height="30" version="1.1" viewBox="0 0 29.969 30" xmlns="http://www.w3.org/2000/svg" xmlns:cc="http://creativecommons.org/ns#" xmlns:dc="http://purl.org/dc/elements/1.1/" xmlns:rdf="http://www.w3.org/1999/02/22-rdf-syntax-ns#">
 <metadata>
  <rdf:RDF>
   <cc:Work rdf:about="">
    <dc:format>image/svg+xml</dc:format>
    <dc:type rdf:resource="http://purl.org/dc/dcmitype/StillImage"/>
    <dc:title/>
   </cc:Work>
  </rdf:RDF>
 </metadata>
 <g transform="translate(-76 -848.36)">
  <path transform="translate(0 667.36)" d="m94.84 181c-0.64878-2e-5 -1.2838 0.053-1.9023 0.15039l0.52734 2.0938c0.44861-0.064 0.90685-0.0996 1.375-0.0996 0.44341 0 0.88026 0.0314 1.3066 0.0898l0.51953-2.0957c-0.595-0.09006-1.2043-0.13863-1.8262-0.13863zm3.0488 0.39062-0.52148 2.0938c0.87747 0.24033 1.6954 0.60206 2.4336 1.0644l1.4687-1.6797c-1.0154-0.65664-2.1553-1.1603-3.3809-1.4785zm-6.1699 0.0176c-1.2148 0.32351-2.3428 0.83198-3.3477 1.4883l1.4688 1.6758c0.72953-0.46098 1.5391-0.82651 2.4062-1.0703zm10.531 2.1719-1.4688 1.6777c0.66161 0.55393 1.2279 1.2007 1.6797 1.9141l2.125-0.9336c-0.61241-1.0022-1.4036-1.8993-2.3359-2.6582zm-14.855 0.0273c-0.92416 0.75837-1.7108 1.6571-2.3164 2.6562l2.127 0.93164c0.44606-0.71063 1.0054-1.3547 1.6602-1.9082zm17.738 3.6582-2.125 0.9336c0.32791 0.74938 0.5356 1.5525 0.60157 2.3926l2.3594-2e-3c-0.0729-1.1719-0.36342-2.291-0.83594-3.3242zm-20.596 0.0254c-0.46701 1.0288-0.75574 2.1416-0.82617 3.3066h2.3594c0.06417-0.83313 0.26901-1.6306 0.5918-2.375zm7.3496 2.3301-5.8711 3.3086v-1.1992l-2.2383 2e-3v2.5254l-6.1504 3.4453c-0.31224 0.18439-0.4237 0.23056-0.68945 0.39844-0.11712 0.0744-0.23031 0.16316-0.33789 0.26758l-0.08789 0.0879c-0.2868 0.33267-0.46272 0.71138-0.50391 1.1387l-0.007812 2.2187h5.5391c0.295 0 0.50977 0.29045 0.50977 0.54102 0.12602 0.38558 0.05078 0.90607 0.05078 1.3301h1.6797v-1.8711h1.3594l5.418 9.1856h1.9492l-6.4062-10.717h-8.2891v-0.54101c0-0.12736-0.0026-0.24103 0.08008-0.33594l-0.03125-2e-3c0.04407-0.0417 0.05566-0.0635 0.07422-0.0762 0.15791-0.10747 12.877-7.3047 12.877-7.3047 0.03208 0.56248-0.04764 1.2656-0.46484 1.8516-0.49996 0.70408-1.4386 1.1356-2.7832 1.2793l-0.42773 0.0449v1.3164l5.9688 4.8828v-2.0723l-3.6445-2.9922c1.0326-0.33784 1.7647-0.8847 2.2949-1.6367h-2e-3c1.2689-1.7991 0.50108-4.0553 0.4668-4.1504zm-8.1094 7.2617v1.5078l2.3848-1.5078z"/>
 </g>
 <style type="text/css">.st0{fill:#010101;}
	.st1{fill:#010101;stroke:#000000;stroke-width:4;stroke-linecap:round;stroke-linejoin:round;stroke-miterlimit:10;}</style>
</svg>
