<?xml version="1.0" encoding="UTF-8" standalone="no"?>
<svg
   xmlns:dc="http://purl.org/dc/elements/1.1/"
   xmlns:cc="http://creativecommons.org/ns#"
   xmlns:rdf="http://www.w3.org/1999/02/22-rdf-syntax-ns#"
   xmlns:svg="http://www.w3.org/2000/svg"
   xmlns="http://www.w3.org/2000/svg"
   version="1.1"
   id="svg4584"
   viewBox="0 0 32 22.000002"
   height="22"
   width="32">
  <defs
     id="defs4586">
    <clipPath
       id="clipPath4272"
       clipPathUnits="userSpaceOnUse">
      <rect
         style="opacity:1;fill:#ffcc00;fill-opacity:1;stroke:none;stroke-width:1;stroke-linecap:round;stroke-linejoin:round;stroke-miterlimit:4;stroke-dasharray:none;stroke-opacity:1"
         id="rect4274"
         width="566.92572"
         height="365.56903"
         x="-182.57504"
         y="328.22971"
         rx="1.1336731" />
    </clipPath>
    <symbol
       id="symbol-university"
       viewBox="244.5 110 489 219.9">
      <path
         d="m 79,43 57,119 c 0,0 21,-96 104,-96 83,0 124,106 124,106 L 407,39 489,22 0,17 Z"
         id="path4460" />
      <path
         d="M 94,176 73,215"
         id="path4462"
         style="fill:none;stroke:#000000;stroke-width:20" />
      <path
         d="M 300,19 C 300,29.5 277.4,38 249.5,38 221.6,38 199,29.5 199,19 199,8.5 221.6,0 249.5,0 277.4,0 300,8.5 300,19 Z"
         id="path4464" />
      <path
         ill="none"
         d="M 112,216 96,178 64,88 C 64,88 55,80 60,53 65,26 76,29 76,29"
         id="path4466"
         style="stroke:#000000;stroke-width:20" />
    </symbol>
    <symbol
       viewBox="244.5 110 489 219.9"
       id="symbol9807">
      <path
         id="path9809"
         d="m 79,43 57,119 c 0,0 21,-96 104,-96 83,0 124,106 124,106 L 407,39 489,22 0,17 Z" />
      <path
         id="path9811"
         d="M 94,176 73,215"
         style="fill:none;stroke:#000000;stroke-width:20" />
      <path
         id="path9813"
         d="M 300,19 C 300,29.5 277.4,38 249.5,38 221.6,38 199,29.5 199,19 199,8.5 221.6,0 249.5,0 277.4,0 300,8.5 300,19 Z" />
      <path
         id="path9815"
         d="M 112,216 96,178 64,88 C 64,88 55,80 60,53 65,26 76,29 76,29"
         ill="none"
         style="stroke:#000000;stroke-width:20" />
    </symbol>
    <pattern
       id="EMFhbasepattern"
       patternUnits="userSpaceOnUse"
       width="6"
       height="6"
       x="0"
       y="0" />
    <pattern
       id="EMFhbasepattern-5"
       patternUnits="userSpaceOnUse"
       width="6"
       height="6"
       x="0"
       y="0" />
    <pattern
       id="EMFhbasepattern-4"
       patternUnits="userSpaceOnUse"
       width="6"
       height="6"
       x="0"
       y="0" />
    <clipPath
       id="clipPath4873"
       clipPathUnits="userSpaceOnUse">
      <rect
         y="335.17471"
         x="15.9375"
         height="414.375"
         width="478.125"
         id="rect4875"
         style="fill:#ff0000;fill-opacity:1;stroke:none;stroke-width:4.25196886;stroke-linecap:butt;stroke-linejoin:round;stroke-miterlimit:4;stroke-dasharray:none;stroke-opacity:1" />
    </clipPath>
    <clipPath
       id="clipPath4873-0"
       clipPathUnits="userSpaceOnUse">
      <rect
         y="335.17471"
         x="15.9375"
         height="414.375"
         width="478.125"
         id="rect4875-7"
         style="fill:#ff0000;fill-opacity:1;stroke:none;stroke-width:4.25196886;stroke-linecap:butt;stroke-linejoin:round;stroke-miterlimit:4;stroke-dasharray:none;stroke-opacity:1" />
    </clipPath>
    <clipPath
       id="clipPath4873-0-9"
       clipPathUnits="userSpaceOnUse">
      <rect
         y="335.17471"
         x="15.9375"
         height="414.375"
         width="478.125"
         id="rect4875-7-9"
         style="fill:#ff0000;fill-opacity:1;stroke:none;stroke-width:4.25196886;stroke-linecap:butt;stroke-linejoin:round;stroke-miterlimit:4;stroke-dasharray:none;stroke-opacity:1" />
    </clipPath>
    <clipPath
       id="clipPath4873-0-9-2"
       clipPathUnits="userSpaceOnUse">
      <rect
         y="335.17471"
         x="15.9375"
         height="414.375"
         width="478.125"
         id="rect4875-7-9-3"
         style="fill:#ff0000;fill-opacity:1;stroke:none;stroke-width:4.25196886;stroke-linecap:butt;stroke-linejoin:round;stroke-miterlimit:4;stroke-dasharray:none;stroke-opacity:1" />
    </clipPath>
    <clipPath
       id="clipPath4873-0-9-2-5"
       clipPathUnits="userSpaceOnUse">
      <rect
         y="335.17471"
         x="15.9375"
         height="414.375"
         width="478.125"
         id="rect4875-7-9-3-2"
         style="fill:#ff0000;fill-opacity:1;stroke:none;stroke-width:4.25196886;stroke-linecap:butt;stroke-linejoin:round;stroke-miterlimit:4;stroke-dasharray:none;stroke-opacity:1" />
    </clipPath>
  </defs>
  <metadata
     id="metadata4589">
    <rdf:RDF>
      <cc:Work
         rdf:about="">
        <dc:format>image/svg+xml</dc:format>
        <dc:type
           rdf:resource="http://purl.org/dc/dcmitype/StillImage" />
        <dc:title></dc:title>
      </cc:Work>
    </rdf:RDF>
  </metadata>
  <g
     transform="translate(-0.99999962,-1029.3621)"
     id="layer1">
    <path
       id="rect236"
       d="m 4.3683996,1029.3621 c -1.8661,0 -3.36839998,1.5096 -3.36839998,3.3846 v 15.2308 c 0,1.8751 1.50229998,3.3846 3.36839998,3.3846 H 29.6316 c 1.8661,0 3.3684,-1.5095 3.3684,-3.3846 v -15.2308 c 0,-1.875 -1.5023,-3.3846 -3.3684,-3.3846 z M 17,1031.0544 l 12.6316,1.6923 1.6842,7.6154 -1.6842,7.6154 -12.6316,1.6923 -12.6316004,-1.6923 -1.6842,-7.6154 1.6842,-7.6154 z"
       style="fill:#000000;fill-opacity:1;stroke:none;stroke-width:0;stroke-miterlimit:4;stroke-dasharray:none" />
  </g>
  <style
     type="text/css"
     id="style4">
	.st0{fill:#010101;}
	.st1{fill:#010101;stroke:#000000;stroke-width:4;stroke-linecap:round;stroke-linejoin:round;stroke-miterlimit:10;}
</style>
</svg>
