<?xml version="1.0" encoding="UTF-8"?>
<!-- Created with Inkscape (http://www.inkscape.org/) -->
<svg width="15" height="15" version="1.1" viewBox="0 0 15 15" xmlns="http://www.w3.org/2000/svg" xmlns:cc="http://creativecommons.org/ns#" xmlns:dc="http://purl.org/dc/elements/1.1/" xmlns:rdf="http://www.w3.org/1999/02/22-rdf-syntax-ns#">
 <metadata>
  <rdf:RDF>
   <cc:Work rdf:about="">
    <dc:format>image/svg+xml</dc:format>
    <dc:type rdf:resource="http://purl.org/dc/dcmitype/StillImage"/>
    <dc:title/>
   </cc:Work>
  </rdf:RDF>
 </metadata>
 <g transform="translate(-146 -894.86)">
  <path transform="translate(0 667.36)" d="m158.75 227.5c-0.58606 0-1.118 0.1166-1.5254 0.32031s-0.72461 0.51844-0.72461 0.92969 0.31719 0.72793 0.72461 0.93164 0.93933 0.31836 1.5254 0.31836 1.118-0.11465 1.5254-0.31836 0.72461-0.52039 0.72461-0.93164-0.31719-0.72598-0.72461-0.92969-0.93933-0.32031-1.5254-0.32031zm-9 0.5c-0.58606 0-1.118 0.1166-1.5254 0.32031s-0.72461 0.51844-0.72461 0.92969 0.31719 0.72793 0.72461 0.93164 0.93933 0.31836 1.5254 0.31836 1.118-0.11465 1.5254-0.31836 0.72461-0.52039 0.72461-0.93164-0.31719-0.72598-0.72461-0.92969-0.93933-0.32031-1.5254-0.32031zm5.5 2.5c-0.58606 0-1.118 0.1166-1.5254 0.32031s-0.72461 0.51844-0.72461 0.92969 0.31719 0.72793 0.72461 0.93164 0.93933 0.31836 1.5254 0.31836 1.118-0.11465 1.5254-0.31836 0.72461-0.52039 0.72461-0.93164-0.31719-0.72598-0.72461-0.92969-0.93933-0.32031-1.5254-0.32031zm-5.5 2.5c-0.58606 0-1.118 0.1166-1.5254 0.32031s-0.72461 0.51844-0.72461 0.92969 0.31719 0.72793 0.72461 0.93164 0.93933 0.31836 1.5254 0.31836 1.118-0.11465 1.5254-0.31836 0.72461-0.52039 0.72461-0.93164-0.31719-0.72598-0.72461-0.92969-0.93933-0.32031-1.5254-0.32031zm8.5 1c-0.58606 0-1.118 0.1166-1.5254 0.32031s-0.72461 0.51844-0.72461 0.92969 0.31719 0.72793 0.72461 0.93164 0.93933 0.31836 1.5254 0.31836 1.118-0.11465 1.5254-0.31836 0.72461-0.52039 0.72461-0.93164-0.31719-0.72598-0.72461-0.92969-0.93933-0.32031-1.5254-0.32031zm-3.5 3c-0.58606 0-1.118 0.1166-1.5254 0.32031s-0.72461 0.51844-0.72461 0.92969 0.31719 0.72793 0.72461 0.93164 0.93933 0.31836 1.5254 0.31836 1.118-0.11465 1.5254-0.31836 0.72461-0.52039 0.72461-0.93164-0.31719-0.72598-0.72461-0.92969-0.93933-0.32031-1.5254-0.32031zm-6.5 2c-0.58606 0-1.118 0.1166-1.5254 0.32031s-0.72461 0.51844-0.72461 0.92969 0.31719 0.72793 0.72461 0.93164 0.93933 0.31836 1.5254 0.31836 1.118-0.11465 1.5254-0.31836 0.72461-0.52039 0.72461-0.93164-0.31719-0.72598-0.72461-0.92969-0.93933-0.32031-1.5254-0.32031zm10.5 1c-0.58606 0-1.118 0.1166-1.5254 0.32031s-0.72461 0.51844-0.72461 0.92969 0.31719 0.72793 0.72461 0.93164 0.93933 0.31836 1.5254 0.31836 1.118-0.11465 1.5254-0.31836 0.72461-0.52039 0.72461-0.93164-0.31719-0.72598-0.72461-0.92969-0.93933-0.32031-1.5254-0.32031z" color="#000000" color-rendering="auto" dominant-baseline="auto" image-rendering="auto" shape-rendering="auto" solid-color="#000000" style="font-feature-settings:normal;font-variant-alternates:normal;font-variant-caps:normal;font-variant-ligatures:normal;font-variant-numeric:normal;font-variant-position:normal;isolation:auto;mix-blend-mode:normal;shape-padding:0;text-decoration-color:#000000;text-decoration-line:none;text-decoration-style:solid;text-indent:0;text-orientation:mixed;text-transform:none;white-space:normal"/>
 </g>
 <style type="text/css">.st0{fill:#010101;}
	.st1{fill:#010101;stroke:#000000;stroke-width:4;stroke-linecap:round;stroke-linejoin:round;stroke-miterlimit:10;}</style>
</svg>
