<?xml version="1.0" encoding="UTF-8"?>
<!-- Created with Inkscape (http://www.inkscape.org/) -->
<svg width="10" height="10" version="1.1" viewBox="0 0 10 10" xmlns="http://www.w3.org/2000/svg" xmlns:cc="http://creativecommons.org/ns#" xmlns:dc="http://purl.org/dc/elements/1.1/" xmlns:rdf="http://www.w3.org/1999/02/22-rdf-syntax-ns#">
 <metadata>
  <rdf:RDF>
   <cc:Work rdf:about="">
    <dc:format>image/svg+xml</dc:format>
    <dc:type rdf:resource="http://purl.org/dc/dcmitype/StillImage"/>
    <dc:title/>
   </cc:Work>
  </rdf:RDF>
 </metadata>
 <g transform="translate(-93 -790.36)">
  <path transform="translate(0 667.36)" d="m98 123a5 5 0 0 0-5 5 5 5 0 0 0 5 5 5 5 0 0 0 5-5 5 5 0 0 0-5-5zm0 1.334a3.6667 3.6667 0 0 1 3.666 3.666 3.6667 3.6667 0 0 1-3.666 3.666 3.6667 3.6667 0 0 1-3.666-3.666 3.6667 3.6667 0 0 1 3.666-3.666zm0 2.3027a1.3636 1.3636 0 0 0-1.3633 1.3633 1.3636 1.3636 0 0 0 1.3633 1.3633 1.3636 1.3636 0 0 0 1.3633-1.3633 1.3636 1.3636 0 0 0-1.3633-1.3633z"/>
 </g>
 <style type="text/css">.st0{fill:#010101;}
	.st1{fill:#010101;stroke:#000000;stroke-width:4;stroke-linecap:round;stroke-linejoin:round;stroke-miterlimit:10;}</style>
</svg>
