<?xml version="1.0" encoding="UTF-8"?>
<svg width="28" height="38" version="1.1" viewBox="0 0 12 17" xmlns="http://www.w3.org/2000/svg" xmlns:cc="http://creativecommons.org/ns#" xmlns:dc="http://purl.org/dc/elements/1.1/" xmlns:rdf="http://www.w3.org/1999/02/22-rdf-syntax-ns#">
 <g transform="translate(-182 -90)">
  <path style="stroke:white;stroke-width:2;stroke-linecap:round;stroke-linejoin:round;stroke-dasharray:none;paint-order:stroke fill markers" fill="#734a08ff" d="m188 91c-1.0667 0-2 0.93329-2 2 0 1.0667 0.93332 2 2 2 1.0667 0 2-0.93331 2-2 0-1.0667-0.93334-2-2-2zm0.60547 4.9824-5.6055 0.019531v0.97852s3.041 0.02024 3.041 2.7773v2.5039c0 2.7388-3.041 2.7363-3.041 2.7363v1.002h10v-0.96289s-2.9668-0.0563-2.9668-2.7949v-5.0078c0-0.62599-0.71358-1.2544-1.4277-1.252z"/>
 </g>
</svg>
