<?xml version="1.0" encoding="UTF-8"?>
<svg width="64" height="64" version="1.1" viewBox="0 0 32 32" xmlns="http://www.w3.org/2000/svg" xmlns:cc="http://creativecommons.org/ns#" xmlns:dc="http://purl.org/dc/elements/1.1/" xmlns:rdf="http://www.w3.org/1999/02/22-rdf-syntax-ns#">
 <g transform="translate(-49 -275)">
  <path d="m49.367 275-0.36719 0.00195v0.32813zm7.2812 0-7.6426 7.6465v0.70704l8.3496-8.3535zm7.998 0-15.641 15.646v0.35352h0.35156l15.643-15.646v-0.0234l0.36719-0.33012-0.36719 0.00195v-0.00195zm-15.289 16-0.35742 0.00195v0.32813l0.36719-0.33008zm23.291-16-7.6426 7.6465v0.70704l8.3496-8.3535zm7.998 0-15.641 15.646v0.35352h0.35156l15.643-15.646v-0.35352zm-15.289 16-0.35742 0.00195v-0.35547l-0.35352 0.35352-15.641 15.646v0.35352h0.35156l15.643-15.646v-0.0234l0.36719-0.33012zm-0.35742-8.3535-8.3516 8.3535-7.6426 7.6465v0.70704l8.3496-8.3535 7.6445-7.6465zm16 0-8.3516 8.3535-7.6426 7.6465v0.70704l8.3496-8.3535 7.6445-7.6465zm0 8-0.35352 0.35352-15.641 15.646v0.35352h0.35156l15.643-15.646v-0.35352zm-16 8-8.3516 8.3535h0.70703l7.6445-7.6465zm16 0-8.3516 8.3535h0.70703l7.6445-7.6465zm-16 8-0.35352 0.35352h0.35352zm16 0-0.35352 0.35352h0.35352z"/>
 </g>
</svg>
